# xmcd
#
# Track frame offsets: 
#        150
#        12972
#        43147
#        65738
#        87731
#        109088
#        128528
#        149379
#
# Disc length: 2421 seconds
#
# Revision: 0
# Processed by: cddbd v1.5.2PL0 Copyright (c) Steve Scherf et al.
# Submitted via: ExactAudioCopy v0.95b4
#
DISCID=71097308
DTITLE=Under Silence - Memories Lost In Time
DYEAR=2010
DGENRE=Power Metal
TTITLE0=Memories Lost In Time
TTITLE1=Wartunes From Afar
TTITLE2=Around The Blaze
TTITLE3=The Only Truth
TTITLE4=A Cycle Ends
TTITLE5=New Winds
TTITLE6=Wrath And Sorrow
TTITLE7=Under The Serpent Spell
EXTD=
EXTT0=
EXTT1=
EXTT2=
EXTT3=
EXTT4=
EXTT5=
EXTT6=
EXTT7=
PLAYORDER=
